<?xml version="1.0" standalone="no"?>
<!DOCTYPE svg PUBLIC "-//W3C//DTD SVG 20010904//EN"
 "http://www.w3.org/TR/2001/REC-SVG-20010904/DTD/svg10.dtd">
<svg version="1.0" xmlns="http://www.w3.org/2000/svg"
 width="300.000000pt" height="300.000000pt" viewBox="0 0 300.000000 300.000000"
 preserveAspectRatio="xMidYMid meet">
<metadata>
Created by potrace 1.10, written by Peter Selinger 2001-2011
</metadata>
<g transform="translate(0.000000,300.000000) scale(0.100000,-0.100000)"
fill="#e9eff5" stroke="none">
<path d="M1440 2451 c0 -29 2 -30 20 -19 24 15 22 41 -3 46 -13 3 -17 -3 -17
-27z"/>
<path d="M1536 2458 c-9 -35 -8 -38 17 -38 18 0 19 2 7 10 -8 5 -10 10 -5 10
6 0 11 9 12 20 2 27 -23 25 -31 -2z"/>
<path d="M1348 2435 c5 -29 8 -30 28 -11 21 21 17 36 -10 36 -19 0 -22 -4 -18
-25z"/>
<path d="M1625 2447 c-10 -24 13 -51 31 -36 8 6 14 21 13 33 0 19 -1 19 -11
-4 l-11 -25 -7 25 c-6 22 -8 23 -15 7z"/>
<path d="M1250 2425 c-17 -20 -5 -45 20 -45 11 0 23 7 26 15 6 15 -11 45 -26
45 -4 0 -13 -7 -20 -15z"/>
<path d="M1733 2411 c3 -15 1 -18 -12 -14 -14 5 -14 4 1 -13 14 -14 21 -15 30
-6 8 8 8 15 -2 27 -11 13 -10 14 5 9 13 -5 16 -4 11 4 -12 20 -39 14 -33 -7z"/>
<path d="M1809 2374 c-11 -21 -11 -27 1 -34 11 -7 18 -3 27 13 16 29 16 34 -1
40 -8 3 -19 -5 -27 -19z"/>
<path d="M1161 2382 c-2 -24 19 -51 34 -46 8 4 15 10 15 15 0 4 -6 6 -13 3 -8
-3 -18 5 -25 18 -6 13 -11 17 -11 10z"/>
<path d="M1092 2337 c-10 -11 -8 -19 6 -37 17 -21 19 -21 32 -4 14 16 13 17
-3 11 -11 -4 -16 -3 -12 3 3 5 2 17 -3 26 -7 13 -10 13 -20 1z"/>
<path d="M1476 2329 c-19 -15 -24 -16 -20 -5 7 19 0 20 -28 5 -11 -6 -28 -30
-39 -54 -24 -55 -37 -188 -20 -209 10 -12 7 -29 -13 -86 -33 -90 -33 -115 -1
-136 32 -21 67 -12 85 21 7 14 16 25 20 25 13 0 40 -66 50 -124 10 -59 8 -85
-4 -48 -4 11 -18 28 -32 37 -23 15 -25 21 -19 58 6 40 5 41 -10 22 -11 -14
-14 -30 -10 -50 4 -16 9 -51 12 -77 5 -46 4 -48 -20 -48 -13 0 -41 7 -60 15
-46 19 -157 20 -182 1 -19 -14 -33 -62 -15 -51 5 3 10 13 10 20 0 38 110 47
181 15 24 -11 58 -20 75 -20 28 0 34 -5 52 -47 24 -54 14 -65 -38 -43 -16 7
-34 9 -41 4 -7 -4 -10 -3 -5 4 3 5 -9 20 -28 31 -26 16 -33 26 -29 42 5 20 4
20 -18 9 -30 -17 -89 -30 -89 -21 0 4 12 13 26 20 15 6 24 14 22 17 -8 7 -97
-17 -104 -28 -3 -5 6 -6 22 -2 20 5 25 4 19 -5 -4 -7 -20 -11 -40 -8 -18 3
-38 0 -44 -6 -8 -8 -11 -8 -11 0 0 6 7 16 15 23 9 7 13 15 10 18 -3 3 -14 -3
-25 -13 -16 -14 -20 -15 -24 -4 -2 8 -12 38 -21 68 -29 89 -51 105 -203 147
-74 19 -135 34 -137 32 -8 -7 95 -324 113 -348 21 -28 267 -141 289 -133 22 9
15 -5 -40 -69 -58 -69 -92 -117 -86 -122 4 -4 264 -24 309 -24 14 0 63 -5 110
-10 47 -6 121 -12 164 -14 l80 -3 15 58 c8 31 18 57 22 57 5 0 43 -22 86 -50
43 -27 84 -50 90 -50 32 0 20 109 -25 231 -19 51 -20 65 -12 190 11 155 21
229 27 212 3 -7 13 -13 24 -13 23 0 23 8 4 80 -9 33 -24 64 -40 77 -14 12 -25
27 -25 33 0 5 -6 10 -14 10 -7 0 -19 6 -26 14 -6 8 -18 12 -26 9 -8 -3 -24 3
-36 13 -19 17 -21 17 -15 2 9 -25 0 -22 -14 3 -8 17 -8 20 1 14 8 -5 11 -3 8
5 -2 8 -10 16 -16 18 -19 6 -14 -33 8 -61 28 -35 25 -45 -5 -17 -15 14 -25 35
-25 52 0 36 -27 38 -36 3 -5 -19 1 -36 20 -63 27 -40 31 -93 8 -112 -8 -7 -9
-7 -3 1 12 15 -2 71 -29 114 -32 51 -37 36 -6 -18 32 -55 32 -69 0 -104 -20
-22 -23 -23 -15 -6 16 31 13 70 -5 98 -15 24 -15 60 2 118 11 35 97 17 140
-30 13 -16 23 -23 22 -18 -2 6 2 11 7 13 6 1 10 -3 10 -10 0 -6 6 -13 13 -15
17 -6 16 -6 -22 73 -18 38 -45 94 -60 125 -14 30 -36 65 -48 76 -67 62 -163
81 -212 42z m134 -9 c51 -26 105 -80 118 -119 l11 -31 -47 24 c-26 13 -65 43
-87 66 -49 51 -76 63 -112 50 l-28 -10 24 20 c30 25 71 25 121 0z m-175 -32
c-4 -18 -16 -44 -26 -58 -13 -17 -20 -45 -21 -92 -2 -36 -7 -64 -12 -61 -9 6
0 116 15 165 9 32 36 78 45 78 3 0 2 -14 -1 -32z m155 -34 c25 -25 68 -57 95
-71 56 -28 85 -51 85 -66 0 -6 -8 -3 -19 7 -10 9 -49 25 -87 36 -68 18 -80 28
-127 94 -22 31 -57 34 -82 6 -18 -19 -17 -20 2 -20 24 0 33 -10 77 -83 29 -48
31 -56 19 -73 -10 -12 -13 -34 -10 -62 3 -23 1 -45 -4 -48 -5 -3 -10 3 -10 13
-1 10 -3 25 -4 33 -1 8 -3 21 -4 28 0 7 -16 21 -33 32 -18 11 -35 30 -38 42
-3 13 -16 27 -28 33 -28 12 -28 19 0 77 25 51 47 66 93 67 24 1 41 -9 75 -45z
m-63 -10 c52 -73 62 -81 130 -98 37 -9 76 -25 88 -36 12 -11 23 -18 26 -16 2
2 5 -7 5 -21 l2 -25 -24 23 c-15 14 -40 24 -73 27 -34 3 -48 8 -44 16 4 6 0 5
-9 -2 -25 -20 -53 0 -90 64 -17 31 -39 61 -49 67 -25 15 -24 27 1 27 10 0 27
-12 37 -26z m-87 -135 c0 -10 13 -25 29 -34 17 -8 33 -20 37 -26 3 -6 -5 -3
-20 6 -25 17 -27 17 -60 -9 -43 -32 -49 -33 -34 -1 8 17 19 25 37 25 21 0 23
2 9 13 -9 6 -19 25 -22 41 -6 26 -5 28 8 17 9 -8 16 -22 16 -32z m150 -52 c0
-18 -6 -42 -14 -53 -14 -18 -15 -18 -21 9 -8 30 7 77 25 77 5 0 10 -15 10 -33z
m-98 -24 c9 -10 42 -85 74 -168 32 -82 70 -171 86 -196 31 -51 33 -69 17 -137
-12 -47 -25 -72 -39 -72 -10 0 -66 126 -83 190 -9 30 -19 82 -22 115 -10 82
-45 141 -98 165 l-42 19 35 -6 c19 -3 38 -6 41 -7 4 0 7 4 7 9 1 6 -11 9 -26
8 -19 -2 -23 0 -13 7 11 6 7 10 -15 13 -16 2 -4 3 26 1 54 -3 54 -2 25 11 -17
8 -43 12 -59 9 -21 -5 -27 -3 -21 6 5 9 23 11 56 7 27 -3 49 -5 49 -3 0 2 -10
11 -22 22 -12 10 -18 14 -15 7 5 -7 0 -9 -14 -6 -16 4 -17 8 -7 14 21 14 44
10 60 -8z m216 -57 c30 -33 33 -52 11 -72 -19 -17 -19 -16 -13 15 5 24 1 40
-21 71 -16 23 -24 44 -19 52 5 8 10 3 15 -16 5 -16 17 -38 27 -50z m-92 -33
c18 -39 18 -47 -1 -83 -14 -28 -14 -30 2 -30 28 0 84 38 129 86 27 30 49 44
66 44 39 0 74 -34 87 -83 6 -25 13 -52 17 -61 3 -9 2 -16 -4 -16 -6 0 -16 19
-24 42 -8 28 -20 44 -32 46 -22 5 -101 -32 -133 -61 -21 -18 -23 -19 -23 -3 0
30 -17 8 -24 -31 -3 -21 -9 -55 -13 -77 l-8 -38 -39 98 c-22 55 -39 111 -38
126 1 14 -2 37 -7 51 -7 18 -5 28 7 41 16 16 17 16 20 -1 2 -10 10 -32 18 -50z
m182 50 c12 -3 25 -10 29 -16 4 -6 0 -8 -10 -4 -10 4 -28 -3 -44 -17 l-28 -24
0 39 c0 31 3 38 15 33 8 -4 25 -9 38 -11z m-423 -43 c-4 -6 11 -18 33 -27 37
-14 40 -17 30 -39 -9 -19 -14 -21 -25 -13 -7 7 -26 14 -41 18 -27 6 -28 8 -20
39 5 17 13 32 19 32 6 0 7 -5 4 -10z m21 -85 c18 -14 18 -14 -7 -15 -15 0 -32
7 -39 15 -10 12 -9 15 7 15 10 0 28 -7 39 -15z m473 1 c15 -18 -31 -140 -93
-246 -41 -70 -86 -124 -86 -104 0 5 -5 2 -11 -6 -9 -12 -10 -12 -5 3 3 10 6
26 7 35 1 10 4 6 8 -8 7 -23 8 -21 15 17 6 32 3 52 -13 88 -39 89 -4 158 108
211 56 27 56 27 70 10z m-970 -41 c63 -19 120 -40 128 -47 8 -6 21 -28 29 -47
19 -44 79 -244 88 -290 5 -31 4 -33 -17 -28 -52 12 -243 107 -259 129 -9 12
-35 82 -57 153 -21 72 -42 138 -46 148 -10 24 2 22 134 -18z m951 -181 c-5
-54 -10 -110 -10 -124 0 -21 -8 -28 -49 -43 -27 -9 -71 -20 -97 -24 l-48 -6
60 59 c45 44 72 83 105 150 24 50 45 90 46 89 2 -1 -2 -46 -7 -101z m-347 55
c15 -22 32 -59 38 -82 6 -23 24 -68 41 -101 18 -35 24 -57 16 -54 -47 18 -60
20 -56 7 10 -29 61 -44 153 -43 50 1 102 6 116 12 26 10 27 9 54 -61 31 -84
47 -205 24 -192 -20 12 -153 98 -157 101 -2 1 2 19 9 38 9 24 10 39 3 46 -25
25 -369 41 -504 24 -73 -10 -43 3 84 35 l117 30 39 -25 c21 -14 43 -23 49 -20
23 14 -13 173 -49 219 -14 17 -19 38 -17 66 1 22 5 41 8 41 3 0 17 -18 32 -41z
m-171 -87 c2 -4 17 -18 33 -31 18 -15 23 -21 11 -17 -11 4 -43 14 -70 24 -50
16 -51 16 -21 23 17 4 33 7 37 8 3 0 8 -2 10 -7z m0 -49 c56 -20 121 -37 143
-37 31 -1 40 -5 43 -21 4 -19 4 -19 -15 -2 -11 9 -24 17 -29 17 -5 0 -3 -4 3
-8 18 -11 -105 -57 -218 -82 -51 -11 -93 -19 -94 -17 -1 1 -18 76 -38 162 -2
10 37 21 80 24 11 0 68 -16 125 -36z m169 -83 c10 -6 19 -20 19 -30 0 -25 -8
-25 -40 0 -23 18 -23 20 -5 20 17 0 17 2 5 10 -20 13 -4 13 21 0z m337 -12
c-5 -15 -40 -26 -83 -27 -25 0 -22 3 20 18 63 23 68 24 63 9z m-558 -90 c43 1
81 -2 85 -7 5 -10 -55 -55 -110 -83 -29 -15 -90 -14 -100 2 -2 4 16 22 41 40
25 17 43 35 40 37 -3 3 -31 -13 -62 -37 -64 -48 -61 -57 23 -66 45 -6 52 -3
121 45 72 51 83 65 60 74 -7 2 1 4 19 3 23 -1 29 -4 21 -13 -5 -7 -6 -18 -2
-24 4 -7 3 -9 -4 -5 -6 3 -26 -18 -46 -51 -36 -57 -44 -83 -27 -83 10 0 67 84
95 137 18 36 49 48 99 39 17 -3 67 -7 110 -9 88 -4 105 -13 87 -48 -7 -13 -14
-25 -15 -27 -2 -2 -28 13 -60 33 -31 20 -59 35 -61 32 -3 -2 22 -22 55 -43
l59 -38 -14 -39 c-8 -22 -14 -48 -14 -58 0 -17 -8 -19 -62 -18 -35 0 -97 4
-138 9 -41 5 -154 14 -250 20 -96 6 -178 15 -183 19 -4 4 13 29 37 57 25 27
55 65 68 86 17 27 26 33 36 26 7 -6 48 -10 92 -10z"/>
<path d="M1936 2284 c-10 -26 -7 -36 10 -30 12 4 14 1 9 -14 -8 -24 -5 -24 31
-4 21 11 23 15 8 11 -18 -4 -20 -1 -16 16 4 16 2 19 -13 14 -13 -5 -16 -3 -11
8 3 8 1 15 -3 15 -5 0 -12 -7 -15 -16z"/>
<path d="M1033 2272 c5 -20 2 -22 -16 -16 -15 4 -19 3 -12 -4 6 -5 21 -13 33
-17 22 -6 23 -5 17 17 -10 32 -29 50 -22 20z"/>
<path d="M947 2192 c5 -21 40 -45 53 -37 17 10 11 25 -7 18 -11 -4 -14 -3 -9
5 5 8 2 10 -9 6 -11 -5 -14 -2 -9 10 4 10 1 16 -9 16 -10 0 -13 -7 -10 -18z"/>
<path d="M2017 2185 c-15 -11 -17 -17 -7 -32 11 -17 11 -17 6 1 -5 13 -2 17 9
12 8 -3 15 -1 15 5 0 6 5 7 11 3 7 -4 10 -1 7 6 -6 20 -20 21 -41 5z"/>
<path d="M903 2105 c-7 -19 13 -36 37 -32 8 1 15 11 15 22 0 26 -42 34 -52 10z"/>
<path d="M2063 2107 c-15 -8 -19 -17 -14 -26 12 -19 51 -4 51 20 0 22 -6 23
-37 6z"/>
<path d="M864 1116 c-78 -36 -107 -92 -66 -129 24 -22 76 -22 93 0 12 15 12
16 -6 11 -11 -3 -28 -9 -37 -13 -23 -9 -58 27 -51 54 12 46 111 91 197 91 54
0 157 -25 204 -49 47 -24 162 -120 162 -135 0 -19 -130 -238 -176 -296 -53
-67 -100 -100 -152 -107 -37 -5 -93 14 -106 35 -3 5 24 30 60 57 108 79 183
189 184 268 0 71 -61 97 -138 58 -42 -21 -67 -47 -106 -107 -25 -39 -30 -42
-84 -46 -135 -13 -233 -82 -234 -167 -1 -101 124 -141 258 -82 l46 21 29 -24
c16 -14 49 -28 75 -32 121 -18 186 46 315 311 50 103 92 185 94 183 8 -8 -21
-99 -29 -91 -5 4 -6 -1 -2 -12 3 -11 -1 -45 -9 -75 -21 -80 -17 -96 6 -20 10
36 23 66 29 68 6 2 7 8 4 14 -12 20 19 132 43 154 22 21 20 41 -3 26 -13 -9
-82 -100 -87 -115 -2 -7 -31 13 -66 46 -34 31 -79 66 -99 76 -111 56 -260 68
-348 27z m277 -167 c54 -54 -23 -198 -164 -306 -57 -44 -61 -45 -73 -28 -12
16 -17 47 -16 90 0 6 3 27 7 49 6 37 8 38 38 32 17 -3 39 -14 49 -23 10 -9 21
-13 26 -9 10 10 -27 36 -60 43 -38 8 -35 23 15 84 68 84 136 110 178 68z
m-256 -171 c-16 -54 -17 -115 -1 -151 l15 -38 -46 -20 c-74 -31 -123 -34 -176
-11 -51 23 -64 48 -53 105 11 61 74 104 176 123 94 17 93 17 85 -8z"/>
<path d="M1675 1121 c-16 -11 -50 -38 -75 -60 -25 -23 -48 -41 -52 -41 -10 0
-92 -127 -139 -219 -24 -46 -60 -114 -80 -152 -19 -38 -44 -78 -54 -89 -16
-18 -16 -20 -2 -20 27 0 92 97 181 269 47 89 104 184 128 213 78 93 157 127
234 98 25 -10 26 -13 22 -64 -5 -62 -50 -142 -104 -183 l-34 -25 -19 23 c-16
20 -21 21 -35 10 -21 -17 -21 -40 0 -48 15 -6 15 -8 -2 -20 -26 -19 -74 -16
-119 7 -44 23 -59 20 -22 -5 34 -22 88 -36 112 -29 37 11 120 72 164 119 78
85 102 172 58 213 -31 29 -118 31 -162 3z"/>
<path d="M1870 731 c-5 -11 -10 -32 -10 -47 0 -31 -24 -53 -59 -54 -16 0 -22
4 -17 15 6 18 1 19 -24 5 -28 -15 -62 2 -66 33 -1 15 2 29 7 32 5 3 6 -2 2
-11 -4 -12 -3 -15 5 -10 14 8 16 46 3 46 -14 0 -29 -22 -37 -55 -13 -51 -70
-76 -81 -35 -6 23 -14 25 -31 8 -26 -26 -12 -35 63 -35 41 0 75 3 75 7 0 10
63 5 86 -8 16 -8 27 -7 48 3 24 13 30 13 43 -1 10 -9 22 -12 32 -8 9 4 42 7
75 6 59 -1 96 10 96 30 0 6 -10 4 -25 -6 -33 -22 -56 -20 -62 4 -7 25 -11 25
-48 0 -16 -11 -38 -20 -49 -20 -15 0 -17 5 -12 28 17 73 18 92 8 92 -6 0 -16
-9 -22 -19z"/>
</g>
</svg>
